<?xml version="1.0" encoding="utf-8"?>
<!-- Generator: Adobe Illustrator 20.0.0, SVG Export Plug-In . SVG Version: 6.00 Build 0)  -->
<svg version="1.1" id="Layer_1" xmlns="http://www.w3.org/2000/svg" xmlns:xlink="http://www.w3.org/1999/xlink" x="0px" y="0px"
	 viewBox="0 0 512 512" style="enable-background:new 0 0 512 512;" xml:space="preserve">
<style type="text/css">
	.st0{fill:#E65100;}
	.st1{fill:#FFFFFF;}
	.st2{fill:#F6A45D;}
</style>
<g>
	<g id="F3GqMt_1_">
		<g>
			<path class="st0" d="M566.1,342.5c-4.2-1-8.2-1.9-12.2-2.8c-3.2-0.7-4.7-2.7-4.6-6.1c0.6-31,0.5-62,2-92.9
				c1.3-24.9,4-49.7,7.2-74.4c2.5-19,7.5-37.4,16.9-54.4c6-10.9,14-19.8,25.8-24.8c6.7-2.8,9.8-0.8,9.8,6.5
				c0,80.1,0.1,160.2,0.1,240.4c0,40.8,0.1,81.7-0.2,122.5c0,5.5-1.4,11.3-3.8,16.3c-5,10.6-16.4,15.8-27,13.5
				c-11.1-2.4-19.7-12.1-19.9-23.9c-0.2-12,0.7-24,1.2-35.9c1.2-24.4,2.5-48.9,3.8-73.3C565.5,349.6,565.8,346.2,566.1,342.5z
				 M600.4,332.2c0-70.6,0-140.2,0-209.8c-0.6-0.1-1.1-0.3-1.7-0.4c-2.6,6.1-5.5,12-7.6,18.2c-9.6,28.2-12.7,57.5-14.9,86.9
				c-2.1,29.2-2.7,58.6-3.8,87.9c-0.2,5.8,0,11.5,0,17.2C582.1,332.2,591.1,332.2,600.4,332.2z M566.8,332c0.2-1.6,0.4-2.8,0.4-3.9
				c0.6-20,0.9-40,1.7-59.9c1.5-34.3,3.4-68.5,10.2-102.3c3.8-18.6,8.5-36.9,19.9-52.9c2.2-3.1,1.2-8.5,1.7-12.8
				c-0.6-0.2-1.2-0.3-1.9-0.5c-2.5,2.4-5.7,4.3-7.4,7.2c-4.8,7.7-10.1,15.4-13.3,23.8c-11.3,29.5-13.8,60.8-15.9,92
				c-1.6,22.9-2,45.9-2.7,68.8c-0.4,12.9-0.1,25.9-0.1,39.2C561.9,331,564.2,331.5,566.8,332z"/>
			<path class="st1" d="M600.4,332.2c-9.3,0-18.4,0-28,0c0-5.7-0.2-11.5,0-17.2c1.2-29.3,1.7-58.6,3.8-87.9
				c2.1-29.4,5.3-58.8,14.9-86.9c2.1-6.2,5-12.1,7.6-18.2c0.6,0.1,1.1,0.3,1.7,0.4C600.4,192,600.4,261.6,600.4,332.2z"/>
			<path class="st1" d="M566.8,332c-2.6-0.5-5-0.9-7.3-1.4c0-13.3-0.3-26.2,0.1-39.2c0.6-22.9,1.1-45.9,2.7-68.8
				c2.2-31.2,4.7-62.4,15.9-92c3.2-8.4,8.5-16.1,13.3-23.8c1.8-2.8,4.9-4.8,7.4-7.2c0.6,0.2,1.2,0.3,1.9,0.5
				c-0.5,4.3,0.5,9.7-1.7,12.8c-11.4,16-16.1,34.2-19.9,52.9c-6.9,33.7-8.7,68-10.2,102.3c-0.9,20-1.2,39.9-1.7,59.9
				C567.2,329.2,567,330.3,566.8,332z"/>
		</g>
	</g>
	<g id="if8klQ_1_">
		
			<image style="overflow:visible;opacity:0.75;" width="499" height="510" xlink:href="AB32CCEDAAB44DE.png"  transform="matrix(1 0 0 1 2 10)">
		</image>
		<g>
			<g>
				<g>
					<path class="st0" d="M367,114.4c18.4-18.4,53.3-53.4,88.3-88.3c2-2,4.1-4,6.4-5.5c8.9-5.4,15.8-2.2,16.9,7.9
						c1.5,14.6-3,28.1-10.4,41c-15.4,26.8-32.8,52.4-54,75.3c-22.8,24.7-45.8,49.2-69.3,73.3c-14.1,14.5-29,28-43.9,41.7
						c-2,1.8-5.6,2.3-8.5,2.6c-6.1,0.7-12.3,0.7-18.4,1.5c-2,0.3-4.3,1.8-5.8,3.4c-8.5,9.2-16.9,18.5-25.2,27.8
						c-15.5,17.5-30.7,35.1-46.4,52.4c-17.8,19.6-35.5,39.3-54,58.2c-25.1,25.8-50.8,51.1-76.5,76.3c-7.9,7.8-16.7,14.5-28.4,15
						c-18.7,0.8-31.4-14-26.3-32.3c1.9-7,5.9-14.5,11-19.7c41.1-41,82.4-82,124.4-122.1c28.2-26.9,58.1-52.1,86.3-78.9
						C272.7,206.8,311.3,168.5,367,114.4z M354.9,131.6c-19.1,19.1-38.2,38.2-57.3,57.3c-15.5,15.5-30.7,31.1-46.5,46.3
						c-5.5,5.3-5.6,8.6-0.2,13c4.3,3.5,7.8,8,12,11.6c1.4,1.2,4.8,2.1,6.2,1.2c7.1-4.6,14.4-3.5,21.9-3.1c3,0.2,7.1-0.8,9.2-2.8
						c12.9-12,25.6-24.3,37.9-36.9c16.3-16.6,32.3-33.5,48.5-50.2c27-27.9,51.4-57.9,71.3-91c7.3-12.1,16.2-24.2,16.6-39.1
						c0.1-5.5,3-12.7-3.4-15.4c-6.2-2.6-10.5,3.4-14.6,7.5C422.6,63.9,388.7,97.8,354.9,131.6z M258.6,263.5
						c-5.6-6.5-9.9-11.3-14.1-16.2c-3-3.6-5.8-3.4-9.3,0.2c-7.8,8.1-15.9,16-23.9,24c-12,11.9-12,11.9,0.4,22.1
						c0.2,0.1,0.5,0.1-0.3,0c1.4-3,2.1-6,3.9-7.9c6.8-7.3,14-14.3,21.1-21.3C246.6,254.3,246.7,254.4,258.6,263.5z M226.3,305.5
						c0.2,0.1,0.3,0.1,0.5,0.2c11.2-11.2,22.3-22.3,33.5-33.5c-0.1-0.1-0.2-0.2-0.3-0.3C248.7,283.1,237.5,294.3,226.3,305.5z"/>
					<path class="st1" d="M354.9,131.6c33.9-33.8,67.7-67.7,101.6-101.5c4.1-4.1,8.4-10.1,14.6-7.5c6.4,2.7,3.5,10,3.4,15.4
						c-0.4,14.9-9.3,27-16.6,39.1c-19.9,33.1-44.3,63.1-71.3,91c-16.2,16.7-32.1,33.6-48.5,50.2c-12.4,12.6-25,24.9-37.9,36.9
						c-2.1,2-6.2,2.9-9.2,2.8c-7.5-0.4-14.7-1.5-21.9,3.1c-1.3,0.9-4.7,0-6.2-1.2c-4.3-3.6-7.7-8.1-12-11.6c-5.4-4.4-5.3-7.8,0.2-13
						c15.8-15.1,31-30.8,46.5-46.3C316.6,169.8,335.7,150.7,354.9,131.6z M264.9,237c-4.7-6-7.8-5.7-11.2-1.6
						c-2.8,3.3-7.1,6.1-2.4,10.5c6,5.6,9.1-2.2,13.4-4C265.5,241.6,264.9,237.4,264.9,237z"/>
					<path class="st2" d="M258.6,263.5c-11.9-9.1-12-9.2-22.2,0.8c-7.1,7-14.3,14-21.1,21.3c-1.8,1.9-2.5,4.9-3.9,7.9
						c0.8,0.1,0.5,0.2,0.3,0c-12.4-10.2-12.3-10.2-0.4-22.1c8-8,16.1-15.8,23.9-24c3.5-3.6,6.2-3.8,9.3-0.2
						C248.7,252.2,253,257,258.6,263.5z M237,249.1c0-0.2-0.1-0.3-0.1-0.5c-8,8-16,16-24,24c0.1,0.1,0.2,0.2,0.3,0.3
						C221.2,264.9,229.1,257,237,249.1z"/>
					<path class="st2" d="M226.3,305.5c11.2-11.2,22.4-22.4,33.6-33.6c0.1,0.1,0.2,0.2,0.3,0.3c-11.2,11.2-22.3,22.3-33.5,33.5
						C226.6,305.7,226.5,305.6,226.3,305.5z"/>
					<path class="st0" d="M264.9,237c0,0.4,0.6,4.7-0.3,5c-4.3,1.8-7.4,9.6-13.4,4c-4.7-4.4-0.4-7.3,2.4-10.5
						C257.1,231.3,260.2,230.9,264.9,237z"/>
					<path class="st0" d="M237,249.1c-7.9,7.9-15.8,15.8-23.8,23.8c-0.1-0.1-0.2-0.2-0.3-0.3c8-8,16-16,24-24
						C236.9,248.7,237,248.9,237,249.1z"/>
				</g>
			</g>
		</g>
	</g>
	<g>
		
			<image style="overflow:visible;opacity:0.75;" width="517" height="517" xlink:href="AB32CCEDAAB44DB.png"  transform="matrix(1 0 0 1 4 6)">
		</image>
		<g>
			<g>
				<path class="st0" d="M64,79.9"/>
				<path class="st0" d="M72,94.7C62.5,84.5,53,74.2,43.4,63.9c0,0-0.1,0-0.1,0c9.5,10.3,19,20.6,28.5,30.8L72,94.7z"/>
				<g>
					<path class="st1" d="M15.5,61.3c3.6-3.1,96.3,92.1,102,86.3c-1.4-2-85.8-99.5-87.5-101.6c0,0,48.5,43.1,48.5,43.1
						c8.2,16.3,51.7,45.5,52.3,44.4c1.2-2.1,1.1-5.5,0.3-7.9c-0.8-2.4-85.7-95-85.2-95.5c5.6,5.6,98.8,92.1,99,91.1
						c2.2-7.9-53.7-67.1-84.8-103.2c12.2,9.8,77.9,67,97.9,86.5c10.1,9.9,19.1,21.1,27.7,32.4c7.1,9.5,10.7,20.7,8,32.7
						c-2.8,12.2,1.3,22.2,9.8,29.8c13.3,11.9,27.7,22.7,41.7,33.9c0.8,0.6,1.7,1.2,3.2,2.4c-5,5-9.8,9.8-14.9,14.9
						c-7.2-9.7-13.8-19.8-21.6-28.8c-7.2-8.2-15.2-15.9-23.9-22.4c-4-3-11-4.9-15.8-3.8c-19.6,4.4-34.4-3.9-48.5-15.6
						C90.2,152.1,11.9,64.4,15.5,61.3z"/>
					<g>
						<path class="st0" d="M129.2,129.3c-1.4-1.9-2.5-4.1-4.1-5.8C97.8,94.6,70.4,65.9,43.3,36.8c-2-2.1-3.5-7.5-2.3-9.2
							c3.6-4.9,6.8-0.6,9.8,2c28.1,25.7,56.2,51.3,84.3,77c0.5-0.5,1-0.9,1.4-1.4c-24.7-25.5-49.4-50.9-74.1-76.4
							c-2.1-2.1-4.7-3.9-6.1-6.4c-1.2-2.1-1.1-5-1.5-7.5c2.9,0,6.5-1,8.5,0.3c7.3,5,14.4,10.3,20.9,16.2
							c26.7,24,53.6,47.8,79.5,72.7c10.7,10.3,19.5,22.7,28.1,34.9c6.6,9.3,8.2,20.5,5.8,31.6c-1.9,9.1,0.2,17.4,6.4,23
							c14.2,12.9,29.6,24.5,44.5,36.6c1.1,0.9,3.4,2,4.3,1.5c7.6-4.1,11.3,1.7,15.6,5.9c5.5,5.5,10.8,11.3,16.6,16.5
							c19.4,17.2,39.1,34.1,58.6,51.2c9.5,8.3,19.1,16.4,28.1,25.2c36.5,35.6,72.8,71.5,109,107.4c4.5,4.5,8.6,9.6,11.9,15.1
							c9,15.1,6.8,30.9-5.1,40.8c-11.3,9.4-31.1,8.6-42.7-3.1c-41-41.3-81.9-82.8-122.4-124.6c-15.7-16.2-30.3-33.3-45.4-50
							c-15.3-16.8-30.6-33.6-45.8-50.4c-1.2-1.3-3-3.6-2.6-4.6c3.7-8.4-1.9-13.9-6.2-19.3c-9.3-11.7-18.9-23.2-29-34.2
							c-6.5-7.1-14.7-9.9-24.8-7.9c-20.4,4.1-35.3-7-49.8-19c-28.2-23.4-52.2-50.9-76-78.5C32.5,90.6,22.9,78.4,13.6,66
							c-1.5-2-0.4-6-0.5-9.1c2.7,0.8,6.2,0.8,7.9,2.5C37,75,52.4,91.1,68.5,106.5c11.7,11.2,24.2,21.5,36.3,32.2
							c0.6-0.6,1.1-1.2,1.7-1.8c-5.7-5.7-11.6-11.4-17.2-17.3C74.2,103.8,59,87.9,43.9,71.9c-6-6.4-12.1-13-17.4-20
							c-1.6-2.1-0.9-5.9-1.3-8.9c3,0.6,6.8,0.2,8.7,2c28.1,26.1,55.9,52.6,83.8,78.9c2.9,2.7,6.4,4.9,9.6,7.4
							C127.9,130.6,128.6,130,129.2,129.3z M119,147.5c-0.7,0.8-1.4,1.7-2.1,2.5c-11.7-4.6-100.2-87.5-100.6-87.2
							c5.7,6.8,17.6,22.1,18.1,22.7c28.1,33.1,55.9,66.5,89.5,94.5c14,11.7,28.9,20,48.5,15.6c4.8-1.1,11.8,0.8,15.8,3.8
							c8.7,6.5,16.7,14.2,23.9,22.4c7.8,9,14.4,19,21.6,28.8c5.2-5.2,9.9-9.9,14.9-14.9c-1.5-1.2-2.4-1.7-3.2-2.4
							c-14-11.2-28.4-22-41.7-33.9c-8.5-7.6-12.6-17.6-9.8-29.8c2.8-11.9-0.8-23.2-8-32.7c-8.5-11.3-17.5-22.5-27.7-32.4
							C138.2,85,72.5,27.9,60.3,18c32.5,35.3,90.1,91.7,87.3,101.2c-0.8,0.7-1.7,1.3-2.5,2c-2-1.4-93.5-85.5-99-91.1
							c-0.5,0.5,84.5,93.1,85.2,95.5c0.8,2.5,0.8,5.8-0.3,7.9c-0.6,1-4.9,0.8-7.1-0.1c-2.9-1.2-82.5-76.1-93.8-87.4
							C29.3,46.8,117.6,145.5,119,147.5z M251.8,243c-0.3-0.3-0.6-0.6-0.8-0.9c-5.1,4.5-10.2,9-15.4,13.5c-3.7,3.2-3.4,6.1,0,9.4
							c6.9,6.7,13.7,13.6,20.5,20.5c5.2,5.2,10.4,10.4,16,16c8.5-8.5,16.3-16,23.5-23.8c1.1-1.2,0.8-5.3-0.4-6.6
							c-11.2-11.6-22.7-22.9-34-34.3c8.9,10.4,18.6,20,28.3,29.7c8.5,8.5,8.5,8.5-0.6,16.8c-1.4,1.3-2.8,3.1-4.4,3.4
							c-2.4,0.4-6,0.7-7.5-0.7c-10.1-9.6-20.1-19.4-29.5-29.6c-1.5-1.6-0.7-5.9,0.1-8.8C248,245.8,250.3,244.5,251.8,243z"/>
						<path class="st2" d="M251.8,243c-1.5,1.5-3.8,2.7-4.2,4.5c-0.7,2.8-1.6,7.2-0.1,8.8c9.4,10.3,19.4,20.1,29.5,29.6
							c1.5,1.4,5,1.1,7.5,0.7c1.6-0.3,3-2.1,4.4-3.4c9-8.2,9-8.3,0.6-16.8c-9.6-9.7-19.3-19.3-28.3-29.7
							c11.4,11.4,22.9,22.7,34,34.3c1.2,1.3,1.5,5.4,0.4,6.6c-7.2,7.9-14.9,15.3-23.5,23.8c-5.5-5.5-10.8-10.8-16-16
							c-6.8-6.8-13.6-13.8-20.5-20.5c-3.4-3.3-3.7-6.2,0-9.4c5.2-4.5,10.3-9,15.4-13.5C251.2,242.4,251.5,242.7,251.8,243z"/>
					</g>
				</g>
			</g>
		</g>
	</g>
</g>
</svg>
