<?xml version="1.0" encoding="utf-8"?>
<!-- Generator: Adobe Illustrator 20.0.0, SVG Export Plug-In . SVG Version: 6.00 Build 0)  -->
<svg version="1.1" id="Layer_1" xmlns="http://www.w3.org/2000/svg" xmlns:xlink="http://www.w3.org/1999/xlink" x="0px" y="0px"
	 viewBox="0 0 512 512" style="enable-background:new 0 0 512 512;" xml:space="preserve">
<style type="text/css">
	.st0{fill:#FFFFFF;}
	.st1{fill:#F6A45D;}
	.st2{fill:#E65100;}
</style>
<circle class="st0" cx="255.8" cy="256" r="205.3"/>
<g>
	
		<image style="overflow:visible;opacity:0.75;enable-background:new    ;" width="542" height="542" xlink:href="896D31BBBACF7EEF.png"  transform="matrix(1 0 0 1 -8 -8)">
	</image>
	<g>
		<g>
			<path class="st0" d="M4.1,301.8c-0.1-0.6-0.2-1.1-0.3-1.7C3.9,300.6,4,301.2,4.1,301.8z"/>
			<path class="st0" d="M5.4,308.4c-0.1-0.3-0.1-0.6-0.2-1C5.2,307.8,5.3,308.1,5.4,308.4z"/>
			<path class="st0" d="M3.1,295.9c-0.1-0.7-0.2-1.3-0.3-2C2.9,294.6,3,295.3,3.1,295.9z"/>
			<path class="st0" d="M1.4,282.7c0-0.2,0-0.4-0.1-0.6C1.3,282.3,1.4,282.5,1.4,282.7z"/>
			<path class="st0" d="M2.2,289.9C2.1,289.3,2,288.6,2,288C2.1,288.6,2.2,289.2,2.2,289.9z"/>
			<path class="st0" d="M6.9,315.1c-0.2-0.6-0.3-1.3-0.5-1.9C6.6,313.8,6.7,314.4,6.9,315.1z"/>
			<path class="st0" d="M8.3,320.9c-0.2-0.7-0.3-1.3-0.5-2C8,319.5,8.1,320.2,8.3,320.9z"/>
			<path class="st0" d="M13.9,339.3c-0.2-0.6-0.4-1.3-0.7-1.9C13.4,338,13.7,338.7,13.9,339.3z"/>
			<path class="st0" d="M15.8,344.8c-0.2-0.7-0.5-1.3-0.7-2C15.4,343.5,15.6,344.2,15.8,344.8z"/>
			<path class="st0" d="M9.8,326.5c-0.2-0.5-0.3-1.1-0.4-1.6C9.5,325.4,9.7,325.9,9.8,326.5z"/>
			<path class="st0" d="M11.8,333.2c-0.1-0.4-0.3-0.8-0.4-1.2C11.6,332.3,11.7,332.7,11.8,333.2z"/>
			<path class="st0" d="M0.8,276.2c0-0.6-0.1-1.2-0.1-1.8C0.7,275,0.7,275.6,0.8,276.2z"/>
			<path class="st0" d="M30.9,134c2-3.6,4-7.2,6.2-10.7C34.9,126.8,32.9,130.3,30.9,134z"/>
			<path class="st0" d="M40.3,118c2.2-3.5,4.5-6.9,6.9-10.2C44.9,111.2,42.6,114.6,40.3,118z"/>
			<path class="st0" d="M109.8,466.1c-1.3-0.9-2.5-1.8-3.8-2.7C107.2,464.3,108.5,465.2,109.8,466.1z"/>
			<path class="st0" d="M301.3,4c6.3,1.1,12.5,2.5,18.7,4.1C313.8,6.5,307.6,5.1,301.3,4z"/>
			<path class="st0" d="M217,2.9c4.2-0.6,8.5-1.2,12.8-1.6C225.5,1.8,221.3,2.3,217,2.9z"/>
			<path class="st0" d="M17.9,350.2c-0.2-0.5-0.4-1-0.6-1.6C17.5,349.2,17.7,349.7,17.9,350.2z"/>
			<path class="st0" d="M0.4,270.2c0-0.7-0.1-1.4-0.1-2.1C0.3,268.8,0.4,269.5,0.4,270.2z"/>
			<path class="st0" d="M4,210.7c1.1-6.3,2.5-12.5,4.1-18.7C6.5,198.2,5.1,204.4,4,210.7z"/>
			<path class="st0" d="M0.1,263.9c0-0.6,0-1.2-0.1-1.9C0.1,262.7,0.1,263.3,0.1,263.9z"/>
			<path class="st0" d="M15.5,168c2.9-7.8,6.1-15.5,9.7-23C21.6,152.5,18.4,160.1,15.5,168z"/>
			<path class="st0" d="M9.7,185.9c1.2-4,2.4-8.1,3.7-12C12.1,177.9,10.9,181.9,9.7,185.9z"/>
			<path class="st0" d="M25.2,145c1.8-3.7,3.7-7.4,5.7-11C28.9,137.6,27,141.3,25.2,145z"/>
			<path class="st0" d="M23.2,362.5c-0.3-0.7-0.6-1.3-0.9-2C22.6,361.2,22.9,361.9,23.2,362.5z"/>
			<path class="st0" d="M71.8,433.8c-0.8-0.8-1.6-1.6-2.4-2.5C70.2,432.1,71,433,71.8,433.8z"/>
			<path class="st0" d="M76.3,438.3c-0.6-0.6-1.2-1.2-1.9-1.8C75.1,437.1,75.7,437.7,76.3,438.3z"/>
			<path class="st0" d="M59.6,420.2c-0.5-0.6-1-1.2-1.5-1.8C58.6,419,59.1,419.6,59.6,420.2z"/>
			<path class="st0" d="M63.3,424.6c-0.6-0.6-1.1-1.3-1.7-2C62.2,423.3,62.8,423.9,63.3,424.6z"/>
			<path class="st0" d="M67.1,428.7c-0.6-0.6-1.1-1.3-1.7-1.9C65.9,427.5,66.5,428.1,67.1,428.7z"/>
			<path class="st0" d="M80.4,442.3c-0.7-0.6-1.3-1.3-2-1.9C79.1,441,79.7,441.6,80.4,442.3z"/>
			<path class="st0" d="M20.6,356.8c-0.2-0.5-0.4-1-0.6-1.5C20.2,355.9,20.4,356.3,20.6,356.8z"/>
			<path class="st0" d="M429.8,444c-0.8,0.7-1.5,1.4-2.3,2.1C428.3,445.4,429,444.7,429.8,444z"/>
			<path class="st0" d="M94.7,454.7c-0.7-0.6-1.4-1.2-2.2-1.8C93.2,453.6,93.9,454.2,94.7,454.7z"/>
			<path class="st0" d="M84.5,446c-0.7-0.6-1.3-1.2-2-1.8C83.2,444.8,83.8,445.4,84.5,446z"/>
			<path class="st0" d="M90.1,450.9c-1.1-0.9-2.1-1.8-3.1-2.7C88,449.1,89,450,90.1,450.9z"/>
			<path class="st0" d="M103.5,461.6c-0.8-0.6-1.5-1.1-2.3-1.7C102,460.5,102.7,461,103.5,461.6z"/>
			<path class="st0" d="M31.6,379.3c-0.3-0.6-0.6-1.1-0.9-1.7C31,378.2,31.3,378.8,31.6,379.3z"/>
			<path class="st0" d="M28.2,372.8c-0.3-0.5-0.5-1-0.8-1.5C27.6,371.8,27.9,372.3,28.2,372.8z"/>
			<path class="st0" d="M54.9,414.5c-0.4-0.6-0.9-1.1-1.3-1.7C54.1,413.3,54.5,413.9,54.9,414.5z"/>
			<path class="st0" d="M34.6,384.6c-0.4-0.7-0.8-1.3-1.1-2C33.8,383.2,34.2,383.9,34.6,384.6z"/>
			<path class="st0" d="M25.6,367.8c-0.3-0.7-0.6-1.3-0.9-2C25,366.5,25.3,367.1,25.6,367.8z"/>
			<path class="st0" d="M326.1,9.7c4,1.2,8.1,2.4,12,3.7C334.1,12.1,330.1,10.9,326.1,9.7z"/>
			<path class="st0" d="M48,405.3c-0.5-0.7-0.9-1.3-1.4-2C47.1,404,47.6,404.6,48,405.3z"/>
			<path class="st0" d="M51.4,409.8c-0.5-0.6-1-1.3-1.4-1.9C50.4,408.6,50.9,409.2,51.4,409.8z"/>
			<path class="st0" d="M40.5,394.2c-0.3-0.5-0.6-1-0.9-1.5C39.9,393.2,40.2,393.7,40.5,394.2z"/>
			<path class="st0" d="M37.5,389.5c-0.4-0.6-0.8-1.3-1.2-1.9C36.7,388.2,37.1,388.8,37.5,389.5z"/>
			<path class="st0" d="M44.7,400.5c-0.4-0.6-0.8-1.2-1.2-1.8C43.8,399.3,44.2,399.9,44.7,400.5z"/>
			<path class="st0" d="M173.9,13.5c11.9-4,24.2-7.2,36.8-9.5C198.1,6.3,185.8,9.4,173.9,13.5z"/>
			<path class="st0" d="M481.3,377.6c-0.3,0.6-0.7,1.2-1,1.9C480.7,378.8,481,378.2,481.3,377.6z"/>
			<path class="st0" d="M484.6,371.2c-0.3,0.5-0.5,1.1-0.8,1.6C484.1,372.3,484.4,371.8,484.6,371.2z"/>
			<path class="st0" d="M478.6,382.5c-0.4,0.7-0.8,1.4-1.2,2.1C477.8,383.9,478.2,383.2,478.6,382.5z"/>
			<path class="st0" d="M475.7,387.4c-0.4,0.7-0.8,1.4-1.2,2.1C474.9,388.8,475.3,388.1,475.7,387.4z"/>
			<path class="st0" d="M472.5,392.6c-0.4,0.6-0.8,1.2-1.2,1.8C471.8,393.8,472.2,393.2,472.5,392.6z"/>
			<path class="st0" d="M494.7,348.6c-0.2,0.5-0.4,1.1-0.6,1.6C494.3,349.7,494.5,349.1,494.7,348.6z"/>
			<path class="st0" d="M496.9,342.8c-0.2,0.7-0.5,1.3-0.7,2C496.4,344.2,496.6,343.5,496.9,342.8z"/>
			<path class="st0" d="M468.6,398.6c-0.5,0.7-0.9,1.3-1.4,2C467.7,399.9,468.2,399.3,468.6,398.6z"/>
			<path class="st0" d="M489.8,360.5c-0.3,0.7-0.6,1.4-0.9,2.1C489.1,361.9,489.5,361.2,489.8,360.5z"/>
			<path class="st0" d="M344,15.5c3.9,1.4,7.8,3,11.6,4.6C351.8,18.5,347.9,17,344,15.5z"/>
			<path class="st0" d="M487.3,365.7c-0.3,0.7-0.6,1.4-1,2C486.7,367.1,487,366.4,487.3,365.7z"/>
			<path class="st0" d="M442.9,430.9c-1.1,1.2-2.2,2.3-3.3,3.5C440.7,433.2,441.8,432.1,442.9,430.9z"/>
			<path class="st0" d="M498.8,337.3c-0.2,0.7-0.5,1.3-0.7,2C498.3,338.7,498.6,338,498.8,337.3z"/>
			<path class="st0" d="M168,15.5c-49,18-91,50.5-120.8,92.3C77,66,119,33.5,168,15.5z"/>
			<path class="st0" d="M464.8,107.8c-16.7-23.4-37.2-43.9-60.6-60.6C427.6,63.9,448.1,84.4,464.8,107.8z"/>
			<path class="st0" d="M287.9,510c7.4-0.9,14.6-2.2,21.8-3.7c-1.1,0.2-2.1,0.5-3.2,0.7C300.4,508.2,294.2,509.2,287.9,510z"/>
			<path class="st0" d="M454,418.2c-0.6,0.7-1.2,1.4-1.7,2.1C452.9,419.6,453.5,418.9,454,418.2z"/>
			<path class="st0" d="M458.6,412.5c-0.8,1-1.5,2-2.3,2.9C457,414.5,457.8,413.5,458.6,412.5z"/>
			<path class="st0" d="M462.2,407.8c-0.5,0.7-1,1.4-1.6,2.1C461.1,409.2,461.7,408.5,462.2,407.8z"/>
			<path class="st0" d="M450.5,422.5c-0.6,0.7-1.2,1.4-1.9,2.1C449.2,423.9,449.9,423.2,450.5,422.5z"/>
			<path class="st0" d="M446.8,426.6c-0.6,0.7-1.3,1.4-1.9,2.1C445.6,428.1,446.2,427.4,446.8,426.6z"/>
			<path class="st0" d="M465.5,403.2c-0.5,0.7-1,1.4-1.5,2.1C464.5,404.6,465,403.9,465.5,403.2z"/>
			<path class="st0" d="M492,355.3c-0.2,0.6-0.5,1.1-0.7,1.7C491.5,356.4,491.8,355.9,492,355.3z"/>
			<path class="st0" d="M486.8,145c1.8,3.7,3.5,7.5,5.1,11.3C490.3,152.5,488.6,148.7,486.8,145z"/>
			<path class="st0" d="M481.1,134c2,3.6,3.9,7.3,5.7,11C485,141.3,483.1,137.6,481.1,134z"/>
			<path class="st0" d="M474.9,123.3c2.1,3.5,4.2,7.1,6.2,10.7C479.1,130.3,477.1,126.8,474.9,123.3z"/>
			<path class="st0" d="M498.5,173.9c1.3,4,2.6,8,3.7,12C501.1,181.9,499.9,177.9,498.5,173.9z"/>
			<path class="st0" d="M491.9,156.4c1.6,3.8,3.1,7.7,4.6,11.6C495,164.1,493.5,160.2,491.9,156.4z"/>
			<path class="st0" d="M503.9,192c1.6,6.1,2.9,12.4,4.1,18.7C506.9,204.4,505.5,198.2,503.9,192z"/>
			<path class="st0" d="M355.6,20.1c3.8,1.6,7.6,3.3,11.3,5.1C363.3,23.4,359.5,21.7,355.6,20.1z"/>
			<path class="st0" d="M367,25.2c3.7,1.8,7.4,3.7,11,5.7C374.4,28.9,370.7,27,367,25.2z"/>
			<path class="st0" d="M378,30.9c3.6,2,7.2,4,10.7,6.2C385.2,34.9,381.7,32.9,378,30.9z"/>
			<path class="st0" d="M464.8,107.8c2.4,3.3,4.7,6.8,6.9,10.2C469.4,114.6,467.1,111.2,464.8,107.8z"/>
			<path class="st0" d="M394,40.3c3.5,2.2,6.9,4.5,10.2,6.9C400.8,44.9,397.4,42.6,394,40.3z"/>
			<path class="st0" d="M511.3,274.4c0,0.6-0.1,1.2-0.1,1.8C511.3,275.6,511.3,275,511.3,274.4z"/>
			<path class="st0" d="M505.6,313.1c-0.1,0.7-0.3,1.3-0.5,1.9C505.3,314.4,505.4,313.8,505.6,313.1z"/>
			<path class="st0" d="M508.2,300.1c-0.1,0.6-0.2,1.1-0.3,1.7C508,301.2,508.1,300.6,508.2,300.1z"/>
			<path class="st0" d="M506.8,307.4c-0.1,0.4-0.2,0.7-0.2,1.1C506.7,308.1,506.8,307.8,506.8,307.4z"/>
			<path class="st0" d="M502.6,324.8c-0.1,0.5-0.3,1.1-0.4,1.6C502.3,325.9,502.5,325.4,502.6,324.8z"/>
			<path class="st0" d="M504.2,318.8c-0.2,0.7-0.3,1.3-0.5,2C503.9,320.2,504,319.5,504.2,318.8z"/>
			<path class="st0" d="M510.7,282.1c0,0.2,0,0.4-0.1,0.6C510.6,282.5,510.7,282.3,510.7,282.1z"/>
			<path class="st0" d="M500.6,331.9c-0.1,0.5-0.3,0.9-0.4,1.4C500.3,332.8,500.4,332.3,500.6,331.9z"/>
			<path class="st0" d="M511.7,268.1c0,0.7-0.1,1.4-0.1,2.1C511.6,269.5,511.7,268.8,511.7,268.1z"/>
			<path class="st0" d="M510,288c-0.1,0.6-0.2,1.3-0.2,1.9C509.9,289.2,509.9,288.6,510,288z"/>
			<path class="st0" d="M509.2,293.9c-0.1,0.7-0.2,1.4-0.3,2C509,295.2,509.1,294.6,509.2,293.9z"/>
			<path class="st0" d="M511.9,262c0,0.6,0,1.2-0.1,1.9C511.9,263.3,511.9,262.7,511.9,262z"/>
			<path class="st0" d="M99,458.2c-0.8-0.6-1.5-1.2-2.2-1.8C97.5,457.1,98.3,457.7,99,458.2z"/>
			<path class="st0" d="M273.9,511.4c-1.6,0.1-3.3,0.2-4.9,0.3C270.6,511.6,272.3,511.5,273.9,511.4z"/>
			<path class="st0" d="M266.1,511.8c-1.2,0-2.4,0.1-3.6,0.1C263.7,511.9,264.9,511.8,266.1,511.8z"/>
			<path class="st0" d="M415.4,456.3c-0.8,0.7-1.7,1.3-2.5,2C413.7,457.6,414.6,457,415.4,456.3z"/>
			<path class="st0" d="M374.4,483c-1,0.5-2.1,1.1-3.1,1.6C372.3,484.1,373.4,483.6,374.4,483z"/>
			<path class="st0" d="M411.1,459.6c-0.9,0.7-1.7,1.3-2.6,2C409.4,461,410.3,460.3,411.1,459.6z"/>
			<path class="st0" d="M281.1,510.8c-1.9,0.2-3.8,0.4-5.7,0.5C277.3,511.1,279.2,511,281.1,510.8z"/>
			<path class="st0" d="M237.4,511.3c-0.9-0.1-1.8-0.1-2.7-0.2C235.6,511.2,236.5,511.3,237.4,511.3z"/>
			<path class="st0" d="M231.3,510.8c-0.9-0.1-1.9-0.2-2.8-0.3C229.4,510.6,230.4,510.7,231.3,510.8z"/>
			<path class="st0" d="M219.2,509.4c-1-0.1-1.9-0.3-2.9-0.4C217.3,509.1,218.3,509.2,219.2,509.4z"/>
			<path class="st0" d="M225.3,510.2c-1-0.1-1.9-0.2-2.9-0.4C223.3,509.9,224.3,510,225.3,510.2z"/>
			<path class="st0" d="M419.7,452.8c-0.8,0.7-1.6,1.3-2.5,2C418,454.2,418.9,453.5,419.7,452.8z"/>
			<path class="st0" d="M243.6,511.7c-0.9,0-1.7-0.1-2.5-0.1C241.9,511.6,242.7,511.7,243.6,511.7z"/>
			<path class="st0" d="M407.5,462.3c-1.9,1.4-3.8,2.8-5.7,4.1C403.7,465.1,405.6,463.7,407.5,462.3z"/>
			<path class="st0" d="M425.8,447.6c-1.4,1.3-2.9,2.5-4.3,3.8C422.9,450.1,424.3,448.9,425.8,447.6z"/>
			<path class="st0" d="M287.9,510c-2.1,0.3-4.1,0.5-6.2,0.7C283.7,510.5,285.8,510.3,287.9,510z"/>
			<path class="st0" d="M357,491.3c-1.1,0.5-2.2,0.9-3.2,1.4C354.9,492.2,355.9,491.7,357,491.3z"/>
			<path class="st0" d="M333.9,499.9c-0.9,0.3-1.9,0.6-2.8,0.9C332.1,500.5,333,500.2,333.9,499.9z"/>
			<path class="st0" d="M391.1,473.5c-3.4,2.1-6.8,4.1-10.2,6C384.3,477.6,387.7,475.6,391.1,473.5z"/>
			<path class="st0" d="M379.2,480.4c-1,0.6-2,1.1-3,1.6C377.2,481.5,378.2,481,379.2,480.4z"/>
			<path class="st0" d="M369.7,485.4c-3.6,1.8-7.3,3.5-11,5.1C362.4,488.9,366.1,487.2,369.7,485.4z"/>
			<path class="st0" d="M339,498.3c-0.9,0.3-1.8,0.6-2.7,0.9C337.1,498.9,338,498.6,339,498.3z"/>
			<path class="st0" d="M316.9,504.7c-1.7,0.4-3.5,0.8-5.3,1.2C313.4,505.5,315.2,505.1,316.9,504.7z"/>
			<path class="st0" d="M327.3,501.9c-1.1,0.3-2.1,0.6-3.2,0.9C325.1,502.5,326.2,502.2,327.3,501.9z"/>
			<path class="st0" d="M400.2,467.6c-0.9,0.6-1.9,1.3-2.8,1.9C398.3,468.8,399.2,468.2,400.2,467.6z"/>
			<path class="st0" d="M321.9,503.4c-1,0.3-2,0.5-3,0.8C319.9,503.9,320.9,503.7,321.9,503.4z"/>
			<path class="st0" d="M395.6,470.6c-0.9,0.6-1.9,1.2-2.8,1.8C393.7,471.8,394.7,471.2,395.6,470.6z"/>
			<path class="st0" d="M249.8,511.9c-0.7,0-1.4,0-2.1-0.1C248.4,511.9,249.1,511.9,249.8,511.9z"/>
			<path class="st0" d="M347,495.3c-2.7,1-5.3,2-8.1,2.9C341.7,497.3,344.3,496.3,347,495.3z"/>
			<path class="st0" d="M123.9,475.3c-0.8-0.5-1.7-1-2.5-1.5C122.2,474.3,123.1,474.8,123.9,475.3z"/>
			<path class="st0" d="M114.5,469.4c-0.8-0.5-1.6-1.1-2.4-1.6C112.9,468.3,113.7,468.8,114.5,469.4z"/>
			<path class="st0" d="M130.8,479.3c-1.5-0.8-2.9-1.6-4.3-2.5C127.9,477.7,129.3,478.5,130.8,479.3z"/>
			<path class="st0" d="M351.9,493.4c-1.1,0.4-2.2,0.9-3.3,1.3C349.7,494.3,350.8,493.8,351.9,493.4z"/>
			<path class="st0" d="M163.3,494.7c-1-0.4-1.9-0.8-2.9-1.1C161.4,493.9,162.4,494.3,163.3,494.7z"/>
			<path class="st0" d="M175.9,499.2c-0.9-0.3-1.8-0.6-2.6-0.9C174.2,498.6,175.1,498.9,175.9,499.2z"/>
			<path class="st0" d="M119.2,472.4c-0.8-0.5-1.7-1.1-2.5-1.6C117.5,471.3,118.3,471.9,119.2,472.4z"/>
			<path class="st0" d="M433.8,440.2c-0.7,0.7-1.5,1.4-2.2,2.1C432.3,441.6,433,440.9,433.8,440.2z"/>
			<path class="st0" d="M168.6,496.7c-1-0.3-1.9-0.7-2.9-1.1C166.7,496,167.6,496.3,168.6,496.7z"/>
			<path class="st0" d="M186.7,502.5c-0.9-0.2-1.7-0.5-2.6-0.7C184.9,502,185.8,502.2,186.7,502.5z"/>
			<path class="st0" d="M181.3,500.9c-0.9-0.3-1.8-0.6-2.7-0.8C179.5,500.4,180.4,500.6,181.3,500.9z"/>
			<path class="st0" d="M205.1,506.9c-0.8-0.2-1.5-0.3-2.3-0.5C203.6,506.6,204.4,506.8,205.1,506.9z"/>
			<path class="st0" d="M140.6,484.6c-0.9-0.5-1.8-0.9-2.7-1.4C138.8,483.7,139.7,484.1,140.6,484.6z"/>
			<path class="st0" d="M145.7,487.1c-0.9-0.4-1.8-0.9-2.7-1.3C143.8,486.2,144.7,486.6,145.7,487.1z"/>
			<path class="st0" d="M152.9,490.4c-1.6-0.7-3.1-1.4-4.7-2.1C149.8,489,151.4,489.7,152.9,490.4z"/>
			<path class="st0" d="M213.1,508.4c-0.9-0.2-1.8-0.3-2.8-0.5C211.3,508.1,212.2,508.3,213.1,508.4z"/>
			<path class="st0" d="M158.1,492.6c-0.9-0.4-1.9-0.8-2.8-1.2C156.2,491.8,157.2,492.2,158.1,492.6z"/>
			<path class="st0" d="M135.7,482c-0.9-0.5-1.8-1-2.7-1.4C133.9,481.1,134.8,481.5,135.7,482z"/>
			<path class="st0" d="M437.7,436.3c-0.7,0.7-1.4,1.4-2.1,2.1C436.3,437.7,437,437.1,437.7,436.3z"/>
			<path class="st0" d="M199.6,505.7c-0.8-0.2-1.6-0.4-2.4-0.6C197.9,505.4,198.7,505.6,199.6,505.7z"/>
			<path class="st0" d="M193.8,504.4c-0.7-0.2-1.5-0.4-2.2-0.5C192.3,504,193.1,504.2,193.8,504.4z"/>
			<path class="st1" d="M144.7,221.2c0.4,12.7,0.8,26.1,8.7,40.7c7.2,13.4,16.4,20,19.3,22c6.5,4.4,15.4,7.8,13.3,6
				c-32.7-28-31.3-112-31.3-112C150.5,179,144.3,208,144.7,221.2z"/>
			<path class="st2" d="M439.6,434.4c1.1-1.1,2.2-2.3,3.3-3.5c0.7-0.7,1.3-1.4,2-2.2c0.6-0.7,1.3-1.4,1.9-2.1s1.2-1.4,1.8-2
				c0.6-0.7,1.2-1.4,1.9-2.1c0.6-0.7,1.2-1.4,1.8-2.1c0.6-0.7,1.2-1.4,1.7-2.1c0.7-0.9,1.5-1.8,2.2-2.8c0.8-1,1.6-2,2.3-2.9
				c0.7-0.9,1.4-1.8,2-2.7c0.5-0.7,1-1.4,1.6-2.1c0.6-0.8,1.2-1.6,1.8-2.4c0.5-0.7,1-1.4,1.5-2.1c0.6-0.9,1.2-1.7,1.8-2.6
				c0.5-0.7,0.9-1.3,1.4-2c0.9-1.4,1.8-2.8,2.7-4.2c0.4-0.6,0.8-1.2,1.2-1.8c0.7-1,1.3-2.1,1.9-3.1c0.4-0.7,0.8-1.4,1.2-2.1
				c0.6-0.9,1.1-1.9,1.7-2.8c0.4-0.7,0.8-1.4,1.2-2.1c0.6-1,1.1-2,1.7-3c0.3-0.6,0.7-1.2,1-1.9c0.9-1.6,1.7-3.2,2.5-4.8
				c0.3-0.5,0.5-1.1,0.8-1.6c0.6-1.2,1.2-2.3,1.7-3.5c0.3-0.7,0.7-1.4,1-2c0.5-1.1,1-2.1,1.5-3.2c0.3-0.7,0.6-1.4,0.9-2.1
				c0.5-1.2,1-2.4,1.5-3.5c0.2-0.6,0.5-1.1,0.7-1.7c0.7-1.7,1.4-3.4,2.1-5.1c0.2-0.5,0.4-1.1,0.6-1.6c0.5-1.3,1-2.5,1.4-3.8
				c0.2-0.7,0.5-1.3,0.7-2c0.4-1.2,0.8-2.3,1.2-3.5c0.2-0.7,0.5-1.3,0.7-2c0.5-1.3,0.9-2.7,1.3-4.1c0.1-0.5,0.3-0.9,0.4-1.4
				c0.6-1.8,1.1-3.6,1.6-5.4c0.2-0.5,0.3-1.1,0.4-1.6c0.4-1.3,0.7-2.7,1.1-4c0.2-0.7,0.3-1.3,0.5-2c0.3-1.3,0.6-2.5,0.9-3.8
				c0.2-0.6,0.3-1.3,0.5-1.9c0.3-1.5,0.7-3.1,1-4.6c0.1-0.4,0.2-0.7,0.2-1.1c0.4-1.9,0.7-3.8,1.1-5.7c0.1-0.6,0.2-1.1,0.3-1.7
				c0.2-1.4,0.5-2.8,0.7-4.2c0.1-0.7,0.2-1.4,0.3-2c0.2-1.3,0.4-2.7,0.6-4c0.1-0.6,0.2-1.3,0.2-1.9c0.2-1.7,0.4-3.5,0.6-5.3
				c0-0.2,0-0.4,0.1-0.6c0.2-2,0.4-3.9,0.5-5.9c0-0.6,0.1-1.2,0.1-1.8c0.1-1.4,0.2-2.8,0.3-4.2c0-0.7,0.1-1.4,0.1-2.1
				c0.1-1.4,0.1-2.8,0.2-4.2c0-0.6,0-1.2,0.1-1.9c0-2,0.1-4,0.1-6c0-15.5-1.4-30.6-4-45.3c-1.1-6.3-2.5-12.5-4.1-18.7
				c-0.5-2-1.1-4.1-1.7-6.1c-1.2-4-2.4-8.1-3.7-12c-0.7-2-1.4-4-2.1-5.9c-1.4-3.9-3-7.8-4.6-11.6s-3.3-7.6-5.1-11.3
				c-1.8-3.7-3.7-7.4-5.7-11s-4-7.2-6.2-10.7c-1.1-1.8-2.2-3.5-3.3-5.2c-2.2-3.5-4.5-6.9-6.9-10.2c-16.7-23.4-37.2-43.9-60.6-60.6
				c-3.3-2.4-6.8-4.7-10.2-6.9c-1.7-1.1-3.5-2.2-5.2-3.3c-3.5-2.1-7.1-4.2-10.7-6.2s-7.3-3.9-11-5.7c-3.7-1.8-7.5-3.5-11.3-5.1
				s-7.7-3.1-11.6-4.6c-2-0.7-3.9-1.4-5.9-2.1c-4-1.3-8-2.6-12-3.7c-2-0.6-4.1-1.1-6.1-1.7c-6.1-1.6-12.4-2.9-18.7-4.1
				c-14.7-2.6-29.9-4-45.3-4c-8.8,0-17.6,0.4-26.2,1.3c-4.3,0.4-8.6,1-12.8,1.6c-2.1,0.3-4.2,0.7-6.3,1c-12.6,2.3-24.9,5.4-36.8,9.5
				c-2,0.7-4,1.4-5.9,2.1C119,33.5,77,66,47.2,107.8c-2.4,3.3-4.7,6.8-6.9,10.2c-1.1,1.7-2.2,3.5-3.3,5.2c-2.1,3.5-4.2,7.1-6.2,10.7
				c-2,3.6-3.9,7.3-5.7,11c-3.6,7.5-6.8,15.1-9.7,23c-0.7,2-1.4,3.9-2.1,5.9c-1.3,4-2.6,8-3.7,12c-0.6,2-1.1,4.1-1.7,6.1
				C6.3,198,5,204.3,3.8,210.6c-2.6,14.7-4,29.9-4,45.3c0,2,0,4,0.1,6c0,0.6,0,1.2,0.1,1.9c0,1.4,0.1,2.8,0.2,4.2
				c0,0.7,0.1,1.4,0.1,2.1c0.1,1.4,0.2,2.8,0.3,4.2c0,0.6,0.1,1.2,0.1,1.8c0.2,2,0.3,3.9,0.5,5.9c0,0.2,0,0.4,0.1,0.6
				c0.2,1.8,0.4,3.6,0.6,5.3c0.1,0.6,0.2,1.3,0.2,1.9c0.2,1.3,0.4,2.7,0.6,4c0.1,0.7,0.2,1.4,0.3,2c0.2,1.4,0.4,2.8,0.7,4.1
				c0.1,0.6,0.2,1.1,0.3,1.7c0.3,1.9,0.7,3.8,1.1,5.7c0.1,0.3,0.1,0.6,0.2,1c0.3,1.6,0.7,3.2,1,4.7c0.1,0.6,0.3,1.3,0.5,1.9
				c0.3,1.3,0.6,2.5,0.9,3.8c0.2,0.7,0.3,1.3,0.5,2c0.3,1.3,0.7,2.7,1.1,4c0.1,0.5,0.3,1.1,0.4,1.6c0.5,1.8,1.1,3.6,1.6,5.4
				c0.1,0.4,0.3,0.8,0.4,1.2c0.4,1.4,0.9,2.8,1.4,4.2c0.2,0.6,0.4,1.3,0.7,1.9c0.4,1.2,0.8,2.4,1.3,3.6c0.2,0.7,0.5,1.3,0.7,2
				c0.5,1.3,1,2.5,1.4,3.8c0.2,0.5,0.4,1,0.6,1.6c0.7,1.7,1.4,3.4,2.1,5.2c0.2,0.5,0.4,1,0.6,1.5c0.5,1.2,1.1,2.5,1.6,3.7
				c0.3,0.7,0.6,1.3,0.9,2c0.5,1.1,1,2.2,1.5,3.3c0.3,0.7,0.6,1.3,0.9,2c0.6,1.2,1.2,2.4,1.8,3.6c0.3,0.5,0.5,1,0.8,1.5
				c0.8,1.6,1.7,3.2,2.5,4.8c0.3,0.6,0.6,1.1,0.9,1.7c0.6,1.1,1.2,2.2,1.8,3.3c0.4,0.7,0.8,1.3,1.1,2c0.6,1,1.2,2,1.7,3
				c0.4,0.6,0.8,1.3,1.2,1.9c0.7,1.1,1.4,2.2,2,3.3c0.3,0.5,0.6,1,0.9,1.5c1,1.5,1.9,3,2.9,4.5c0.4,0.6,0.8,1.2,1.2,1.8
				c0.6,0.9,1.3,1.9,2,2.8c0.5,0.7,0.9,1.3,1.4,2c0.6,0.9,1.3,1.8,1.9,2.6c0.5,0.6,0.9,1.3,1.4,1.9c0.7,1,1.5,2,2.2,2.9
				c0.4,0.6,0.9,1.1,1.3,1.7c1,1.3,2.1,2.6,3.1,3.9c0.5,0.6,1,1.2,1.5,1.8c0.7,0.8,1.4,1.6,2,2.4c0.6,0.7,1.1,1.3,1.7,2
				c0.7,0.8,1.3,1.5,2,2.3c0.6,0.6,1.1,1.3,1.7,1.9c0.8,0.9,1.6,1.7,2.4,2.6c0.8,0.8,1.6,1.7,2.4,2.5c0.9,0.9,1.8,1.8,2.6,2.7
				c0.6,0.6,1.2,1.2,1.9,1.8c0.7,0.7,1.4,1.4,2.1,2.1c0.7,0.6,1.3,1.3,2,1.9c0.7,0.7,1.4,1.3,2.1,2c0.7,0.6,1.3,1.2,2,1.8
				c0.8,0.7,1.6,1.5,2.5,2.2c1,0.9,2.1,1.8,3.1,2.7c0.8,0.7,1.6,1.4,2.4,2c0.7,0.6,1.4,1.2,2.2,1.8c0.7,0.6,1.4,1.2,2.1,1.7
				c0.7,0.6,1.5,1.2,2.2,1.8c0.7,0.6,1.4,1.1,2.2,1.7c0.8,0.6,1.5,1.1,2.3,1.7s1.7,1.2,2.5,1.8c1.3,0.9,2.5,1.8,3.8,2.7
				c0.8,0.5,1.5,1.1,2.3,1.6s1.6,1.1,2.4,1.6c0.7,0.5,1.5,1,2.2,1.4c0.8,0.5,1.7,1.1,2.5,1.6c0.7,0.5,1.5,0.9,2.2,1.4
				c0.8,0.5,1.7,1,2.5,1.5s1.7,1,2.5,1.5c1.4,0.8,2.9,1.7,4.3,2.5c0.8,0.4,1.5,0.9,2.3,1.3c0.9,0.5,1.8,1,2.7,1.4
				c0.7,0.4,1.5,0.8,2.2,1.2c0.9,0.5,1.8,0.9,2.7,1.4c0.8,0.4,1.5,0.8,2.3,1.1c0.9,0.4,1.8,0.9,2.7,1.3s1.7,0.8,2.6,1.2
				c1.6,0.7,3.1,1.4,4.7,2.1c0.8,0.3,1.6,0.7,2.3,1c0.9,0.4,1.9,0.8,2.8,1.2c0.8,0.3,1.6,0.6,2.3,1c1,0.4,1.9,0.8,2.9,1.1
				c0.8,0.3,1.6,0.6,2.4,0.9c1,0.4,1.9,0.7,2.9,1.1c1.6,0.6,3.1,1.1,4.7,1.7l0,0c0.9,0.3,1.7,0.6,2.6,0.9c0.9,0.3,1.8,0.6,2.7,0.9
				s1.8,0.6,2.7,0.8c0.9,0.3,1.8,0.6,2.8,0.8c0.9,0.3,1.7,0.5,2.6,0.7c1.6,0.5,3.3,0.9,4.9,1.3c0.7,0.2,1.5,0.4,2.2,0.5
				c1.1,0.3,2.2,0.5,3.3,0.8c0.8,0.2,1.6,0.4,2.4,0.6c1.1,0.2,2.2,0.5,3.3,0.7c0.8,0.2,1.5,0.3,2.3,0.5c1.7,0.4,3.5,0.7,5.3,1l0,0
				c0.9,0.2,1.8,0.3,2.8,0.5c1.1,0.2,2.1,0.4,3.2,0.5c1,0.1,1.9,0.3,2.9,0.4c1,0.2,2.1,0.3,3.1,0.4s1.9,0.2,2.9,0.4
				c1.1,0.1,2.1,0.3,3.2,0.4c0.9,0.1,1.9,0.2,2.8,0.3c1.1,0.1,2.2,0.2,3.4,0.3c0.9,0.1,1.8,0.1,2.7,0.2c1.2,0.1,2.4,0.2,3.6,0.2
				c0.8,0,1.7,0.1,2.5,0.1c1.4,0.1,2.7,0.1,4.1,0.2c0.7,0,1.4,0.1,2.1,0.1c2.1,0,4.2,0.1,6.2,0.1c2.2,0,4.4,0,6.5-0.1
				c1.2,0,2.4-0.1,3.6-0.1c0.9,0,1.9-0.1,2.8-0.1c1.6-0.1,3.3-0.2,4.9-0.3c0.5,0,1-0.1,1.4-0.1c1.9-0.1,3.8-0.3,5.7-0.5
				c0.2,0,0.4,0,0.6-0.1c2.1-0.2,4.1-0.4,6.2-0.7c0,0,0,0,0.1,0c6.3-0.8,12.5-1.8,18.6-3c1.1-0.2,2.1-0.4,3.2-0.7
				c0.7-0.1,1.3-0.3,2-0.4c1.8-0.4,3.5-0.8,5.3-1.2c0.7-0.2,1.3-0.3,2-0.5c1-0.3,2-0.5,3-0.8c0.7-0.2,1.4-0.4,2.1-0.6
				c1.1-0.3,2.1-0.6,3.2-0.9c1.3-0.4,2.6-0.8,3.9-1.2c0.9-0.3,1.9-0.6,2.8-0.9c0.8-0.2,1.5-0.5,2.3-0.7c0.9-0.3,1.8-0.6,2.7-0.9l0,0
				l0,0c2.7-0.9,5.4-1.9,8.1-2.9c0.5-0.2,1.1-0.4,1.6-0.6c1.1-0.4,2.2-0.9,3.3-1.3c0.6-0.2,1.2-0.5,1.8-0.8c1.1-0.4,2.2-0.9,3.2-1.4
				c0.6-0.2,1.1-0.5,1.7-0.7c3.7-1.6,7.4-3.3,11-5.1c0.5-0.3,1.1-0.5,1.6-0.8c1-0.5,2.1-1.1,3.1-1.6c0.6-0.3,1.2-0.6,1.8-0.9
				c1-0.5,2-1.1,3-1.6c0.5-0.3,1.1-0.6,1.6-0.9c3.5-1.9,6.9-3.9,10.2-6c0.6-0.4,1.1-0.7,1.7-1.1c0.9-0.6,1.9-1.2,2.8-1.8
				c0.6-0.4,1.2-0.8,1.8-1.2c0.9-0.6,1.9-1.2,2.8-1.9c0.6-0.4,1.1-0.8,1.6-1.1c1.9-1.3,3.8-2.7,5.7-4.1c0.3-0.2,0.7-0.5,1-0.7
				c0.9-0.7,1.8-1.3,2.6-2c0.6-0.4,1.2-0.9,1.8-1.3c0.8-0.7,1.7-1.3,2.5-2c0.6-0.5,1.2-1,1.8-1.4c0.8-0.7,1.6-1.3,2.5-2
				c0.6-0.5,1.2-1,1.7-1.5c1.5-1.2,2.9-2.5,4.3-3.8c0.6-0.5,1.2-1,1.7-1.5c0.8-0.7,1.5-1.4,2.3-2.1c0.6-0.6,1.2-1.1,1.8-1.7
				c0.7-0.7,1.5-1.4,2.2-2.1c0.6-0.6,1.2-1.2,1.8-1.8c0.7-0.7,1.4-1.4,2.1-2.1C438.3,435.7,439,435,439.6,434.4z M337.6,434.3
				c-0.1-5.3-0.2-10.7-0.3-16c-0.3-12.6-0.5-25.1-0.8-37.7c-0.3-16.6-0.7-33.1-1-49.7c-0.1-3.4,0.3-6.7,1.2-9.9
				c1.6-5.6,4.7-10.2,8.7-14.3c3.1-3.2,6.3-6.3,9.5-9.4c7.7-7.7,11.5-16.9,11.3-27.8c-0.2-7.8-0.6-15.6-0.9-23.5
				c-0.4-10-0.8-20-1.2-30c-0.3-8.2-0.6-16.5-1-24.7c-0.4-9.9-0.8-19.8-1.2-29.8c-0.3-7.4-0.6-14.8-0.9-22.2c0-0.8-0.3-1.6-0.6-2.2
				c-0.8-1.5-2.5-1.6-3.3,0l-1.5,20.8c-0.4,8.7-0.8,17.3-1.2,26c-0.3,7.2-0.6,14.3-1,21.5c-0.4,8.8-0.8,17.6-1.2,26.5
				c-0.3,6.5-0.6,13-0.9,19.5c-0.1,1.2-0.5,2.5-1.1,3.5c-1.6,2.5-5,2.5-6.4-0.1c-0.6-1.1-1-2.4-1.1-3.6c-0.6-11.4-1.1-22.8-1.7-34.2
				c-0.7-13.9-1.3-27.8-2-41.7c-0.6-11.9-1.1-23.8-1.7-35.7c0-0.8-0.3-1.6-0.7-2.3c-0.8-1.6-2.6-1.6-3.4,0c-0.3,0.6-0.6,1.4-0.6,2.2
				c-0.6,12.9-1.2,25.8-1.8,38.7c-0.5,9.9-0.9,19.8-1.3,29.7c-0.7,14.3-1.3,28.6-2,42.9c-0.1,1.4-0.3,2.8-1.1,4
				c-1.7,2.5-5.1,2.6-6.6,0c-0.6-1-1-2.2-1.1-3.4c-0.6-10.3-1-20.6-1.5-30.9c-0.4-8.5-0.8-17-1.2-25.6c-0.5-9.9-0.9-19.7-1.4-29.6
				c-0.4-8.5-0.8-17-1.2-25.6c0-0.7-0.2-1.4-0.4-2.1c-0.3-0.9-0.9-1.7-2-1.6c-1,0-1.7,0.8-1.9,1.7c-0.3,1.2-0.4,2.4-0.5,3.7
				c-0.2,4.6-0.4,9.3-0.6,13.9c-0.4,8.8-0.8,17.5-1.2,26.3c-0.3,7-0.6,14-1,21c-0.4,8.6-0.8,17.3-1.2,25.9
				c-0.4,7.6-0.7,15.3-1.1,22.9c-0.1,1.2-0.5,2.4-1.1,3.4c-1.5,2.5-4.8,2.5-6.3,0c-0.6-1-1-2.3-1.1-3.5c-0.4-5.3-0.6-10.6-0.8-15.9
				c-0.4-8.3-0.8-16.6-1.2-24.8c-0.3-6.9-0.6-13.7-1-20.6c-0.5-9.5-0.9-19-1.4-28.5c-0.4-7.4-0.7-14.9-1.1-22.3
				c0-0.6-0.2-1.3-0.5-1.9c-0.3-0.8-0.9-1.4-1.9-1.4c-0.9,0-1.5,0.6-1.8,1.4c-0.3,0.9-0.5,1.8-0.6,2.7c-0.3,7.1-0.6,14.1-0.8,21.2
				c-0.4,10.2-0.8,20.4-1.2,30.6c-0.3,8.4-0.6,16.7-1,25.1c-0.4,10.3-0.8,20.6-1.2,30.8c-0.3,6.8-0.5,13.6-0.8,20.5
				c-0.2,4.6,0.3,9.2,1.6,13.7c1.8,6.1,5.3,11.1,9.7,15.5c3.1,3.1,6.2,6.1,9.3,9.2c6.9,6.9,10.4,15.1,10.1,25
				c-0.3,8.7-0.4,17.3-0.6,26c-0.3,13-0.5,25.9-0.8,38.9c-0.3,16.2-0.7,32.4-1,48.6c-16.7,4.5-34,6.9-51.8,6.9
				c-16.4,0-32.4-2-47.9-5.9c-0.2-5.6-0.4-11.2-0.6-16.8c-0.4-10.1-0.7-20.2-1.1-30.3c-0.2-6.7-0.5-13.4-0.7-20.1
				c-0.4-10-0.7-20.1-1.1-30.1c-0.3-8.5-0.6-17-0.9-25.4c-0.1-4,0.8-7.8,3.3-11.1c2.1-2.7,4.9-4.5,8-5.8c7-3,13-7.4,18.1-13
				c6.5-7.1,11.1-15.3,14.5-24.2c4.2-11.1,6.3-22.6,7.1-34.4c0.8-10.9,0.5-21.7-1.4-32.5c-2.1-11.5-5.7-22.5-11.5-32.7
				c-5.3-9.4-12.1-17.7-20.9-24c-6.6-4.7-13.8-7.9-21.8-9.2c-1.6-0.3-3.2-0.4-4.8-0.6c-1.8,0-3.5,0-5.3,0c-1.6,0.2-3.3,0.4-4.9,0.6
				c-7.4,1.2-14.1,4-20.3,8.2c-9,6.1-15.8,14-21.3,23.3c-6.4,10.8-10.4,22.4-12.5,34.7c-0.9,5.1-1.5,10.1-1.7,15.3
				c0,0.3-0.1,0.6-0.1,0.9c0,3.2,0,6.3,0,9.5c0,0.3,0.1,0.5,0.1,0.8c0.3,4.4,0.6,8.9,1.1,13.3c0.9,7.8,2.5,15.4,4.9,22.8
				c3.1,9.4,7.4,18.2,13.8,25.9c6,7.2,13.3,12.7,22.1,16.1c2.8,1.1,5.1,2.7,6.8,5.1c2.3,3.2,3.1,6.8,3,10.7
				c-0.1,3.6-0.2,7.1-0.4,10.7c-0.4,9.6-0.7,19.3-1.1,28.9c-0.2,6.4-0.5,12.8-0.7,19.2c-0.4,9.6-0.7,19.2-1.1,28.8
				c-0.3,7.9-0.6,15.8-0.9,23.7c0,0.2,0,0.4,0,0.6c-21.5-9.6-41.2-23.2-58.3-40.3C80.4,357.6,60,308.4,60,256s20.4-101.6,57.4-138.6
				S203.6,60,256,60s101.6,20.4,138.6,57.4S452,203.6,452,256s-20.4,101.6-57.4,138.6C377.8,411.4,358.5,424.7,337.6,434.3z
				 M315.4,305.9c-18.5-3.7-27.6-25.1-26-26.7c1.1-1,6.9,7.7,20.7,13.3c17.4,7.1,31.5,2.7,32,5.3
				C342.5,300.5,329.1,308.6,315.4,305.9z M186.1,289.9c2.1,1.8-6.8-1.6-13.3-6c-2.9-2-12.2-8.6-19.3-22c-7.8-14.6-8.3-28-8.7-40.7
				c-0.4-13.3,5.7-42.3,10-43.3C154.7,177.9,153.4,261.9,186.1,289.9z"/>
			<path class="st1" d="M342.1,297.9c-0.5-2.6-14.6,1.8-32-5.3c-13.8-5.6-19.5-14.4-20.7-13.3c-1.6,1.5,7.5,23,26,26.7
				C329.1,308.6,342.5,300.5,342.1,297.9z"/>
		</g>
	</g>
</g>
</svg>
