<?xml version="1.0" encoding="utf-8"?>
<!-- Generator: Adobe Illustrator 20.0.0, SVG Export Plug-In . SVG Version: 6.00 Build 0)  -->
<svg version="1.1" id="Layer_1" xmlns="http://www.w3.org/2000/svg" xmlns:xlink="http://www.w3.org/1999/xlink" x="0px" y="0px"
	 viewBox="0 0 512 512" style="enable-background:new 0 0 512 512;" xml:space="preserve">
<style type="text/css">
	.st0{fill:#E65100;}
	.st1{fill:#F6A45D;}
	.st2{fill:#FFFFFF;}
</style>
<g>
	
		<image style="overflow:visible;opacity:0.75;enable-background:new    ;" width="507" height="351" xlink:href="3B57E3012E4D8A96.png"  transform="matrix(1 0 0 1 9 -7)">
	</image>
	<g>
		<g>
			<path class="st0" d="M41.3,286.5c1.8,0.7,4,0.7,6,0.7c69.4,0,138.7,0,208.1,0c14.7,0,29.4,0,44.1,0c54.9,0,109.8,0,164.7,0
				c6.9,0,9-1.7,8.7-8.2c-0.4-9.5-0.5-19.1-1.9-28.5C459.3,176,420,120.9,353.3,85.6c-24-12.7-49.8-19.7-76.8-22.3
				c-1.1-0.1-3.1-1.1-3.1-1.6c0.2-4.5-1.4-9,2.8-13.2c10.5-10.5,9.9-28-0.7-38.8C265-1,247.8-1.5,236.4,8.6
				c-11.1,9.9-12.9,27.6-2.9,38.6c3.9,4.3,4.1,8.4,4.1,13.3c0,2.2-0.9,2.8-2.9,2.9c-3.3,0.2-6.5,0.5-9.7,1
				C159,74.8,107.5,107.9,71.3,164C48.8,199,38,237.7,37.8,279.3C37.8,282.4,38.1,285.3,41.3,286.5z M73,247.2
				c2.4-18.7,8-37.7,16.5-55.8c24.5-52.6,64.7-85.3,121.9-96.6c3.5-0.7,7-1.1,10.5-1.4c4.3-0.3,9.7,2.8,7.2,5.4
				c-3,3.1-39.1,41.5-74.9,79.4c-36.2,38.4-72.1,76.3-73.1,76.9C77,257.8,72.7,254,73,247.2z"/>
			<path class="st1" d="M17.4,309.1c0,4.1,0,7.9,0,11.9c158.9,0,317.3,0,475.9,0c0-4.1,0-8,0-11.9C334.5,309.1,176,309.1,17.4,309.1
				z"/>
			<path class="st1" d="M81.2,255.1c1-0.6,36.8-38.6,73.1-76.9c35.8-37.9,71.9-76.3,74.9-79.4c2.5-2.5-3-5.7-7.2-5.4
				c-3.5,0.3-7,0.7-10.5,1.4c-57.2,11.3-97.5,44-121.9,96.6c-8.4,18.1-14,37.1-16.5,55.8C72.7,254,77,257.8,81.2,255.1z"/>
		</g>
	</g>
</g>
<g id="AvNaej_1_">
	
		<image style="overflow:visible;opacity:0.75;enable-background:new    ;" width="213" height="203" xlink:href="3B57E3012E4D8A9A.png"  transform="matrix(0.9952 0 0 0.9952 130.5038 326.1342)">
	</image>
	<g>
		<g>
			<g>
				<path class="st2" d="M304.9,362.3c-1.5,22.4,1.1,44.5,5.8,66.4c2.7,12.6,3.2,25.7,4.4,38.6c0.1,1.2-1.6,3.3-2.9,3.9
					c-16.3,6.7-31.4,15.3-45.3,26.2c-2.9,2.3-4.5,0.5-6.2-1.5c-21-24.7-42.5-49.1-63-74.3c-18.2-22.3-35.3-45.5-52.9-68.3
					c-0.7-0.9-1.4-1.8-2.1-2.8c-4.2-5.7-4.3-9.6-0.3-13.2c4.2-3.8,11.2-3.7,15.4,0.7c8.5,8.7,16.6,17.8,25.1,26.5
					c10.9,11.2,21.3,23,33.1,33.3c14.2,12.4,31.3,18.1,50.4,15.6c9.2-1.2,10.3-2.8,11.5-12c2.4-18.8,4.7-37.7,7.2-56.5
					c0.9-6.7,5.3-10.4,11.4-10.3c5.3,0.1,8.3,2.8,8.5,8.4C305.1,349.3,304.9,355.8,304.9,362.3z"/>
				<path class="st2" d="M228.8,354.1c0-4.2,0.2-8.3-0.1-12.5c-0.2-3.8,1.6-6.6,4.8-7.1c2-0.3,5.2,1.4,6.5,3.2
					c1.6,2.3,2.4,5.5,2.6,8.4c1.5,18.9,2.9,37.8,4.1,56.7c0.1,1.5-1,3.1-1.5,4.7c-1.9-1.1-4.7-1.7-5.4-3.3
					c-2.3-5.3-3.9-10.9-5.7-16.5c-1.8-5.5-4.2-11-5.1-16.7C228.1,365.5,228.8,359.8,228.8,354.1z"/>
				<path class="st2" d="M232,403c-1.2-1.4-2.7-2.5-3.7-4.1c-8-12.9-16.2-25.6-23.6-38.9c-2.8-5.1-4-11.2-5.2-17.1
					c-0.9-4.3,1.7-7.3,6-8.4c3.8-1,8.7,1.7,10.2,6.1c1.6,4.7,2.7,9.6,4.1,14.4c4.1,14.1,8.2,28.1,12.3,42.2c0.5,1.6,0.7,3.4,1,5
					C232.8,402.5,232.4,402.8,232,403z"/>
				<path class="st2" d="M220.3,395.6c-4.2-3.8-8.7-7.4-12.7-11.4c-12.1-12.4-24-25-35.8-37.7c-1.6-1.7-3.3-5.2-2.6-6.6
					c1.1-2.2,4.1-4.2,6.7-4.8c6.4-1.5,9.5,0.6,13,6.4c9.8,16.3,19.9,32.4,29.8,48.6c0.9,1.5,1.8,3,2.6,4.6
					C221,394.9,220.7,395.3,220.3,395.6z"/>
				<path class="st0" d="M320,475c-0.9,0.7-1.6,1.6-2.6,2c-17.1,7.5-33.3,16.6-48.3,27.7c-0.9,0.7-2.6,0.4-3.9,0.5
					c0.5-1.2,0.7-2.9,1.6-3.7c14.7-11.9,30.8-21.4,48.5-28c1.3-0.5,3,0.1,4.5,0.1C319.9,474.1,320,474.5,320,475z"/>
			</g>
		</g>
	</g>
</g>
<path class="st1" d="M257.7,5.9c2.5-2-10.7,1.1-15.7,5c-6.5,5-8.9,11.6-9.5,17.7c-1.1,9.6,5.6,15.9,5.8,14.6
	C241,32.2,239.7,20.2,257.7,5.9z"/>
</svg>
